<mxfile host="app.diagrams.net" modified="2021-04-03T21:00:25.850Z" agent="5.0 (Windows NT 10.0; Win64; x64) AppleWebKit/537.36 (KHTML, like Gecko) Chrome/89.0.4389.114 Safari/537.36" etag="qODIN-3sH3f-juyvb3F2" version="14.5.3" type="github">
  <diagram id="a5ix9fAeSW5AY84f41eT" name="Page-1">
    <mxGraphModel dx="1483" dy="701" grid="1" gridSize="10" guides="1" tooltips="1" connect="1" arrows="1" fold="1" page="1" pageScale="1" pageWidth="827" pageHeight="1169" math="0" shadow="0">
      <root>
        <mxCell id="0" />
        <mxCell id="1" parent="0" />
        <mxCell id="O0oJpY8e8Bnj8QhviU5S-8" style="edgeStyle=orthogonalEdgeStyle;rounded=0;orthogonalLoop=1;jettySize=auto;html=1;exitX=0.5;exitY=1;exitDx=0;exitDy=0;exitPerimeter=0;entryX=0.5;entryY=0;entryDx=0;entryDy=0;" parent="1" source="jB2y5ZlAkc883ijvKfTW-2" target="jB2y5ZlAkc883ijvKfTW-8" edge="1">
          <mxGeometry relative="1" as="geometry" />
        </mxCell>
        <mxCell id="jB2y5ZlAkc883ijvKfTW-2" value="Старт" style="strokeWidth=2;html=1;shape=mxgraph.flowchart.start_1;whiteSpace=wrap;" parent="1" vertex="1">
          <mxGeometry x="140" y="40" width="170" height="40" as="geometry" />
        </mxCell>
        <mxCell id="O0oJpY8e8Bnj8QhviU5S-9" style="edgeStyle=orthogonalEdgeStyle;rounded=0;orthogonalLoop=1;jettySize=auto;html=1;exitX=0.5;exitY=1;exitDx=0;exitDy=0;entryX=0.5;entryY=0;entryDx=0;entryDy=0;" parent="1" source="jB2y5ZlAkc883ijvKfTW-8" target="O0oJpY8e8Bnj8QhviU5S-4" edge="1">
          <mxGeometry relative="1" as="geometry" />
        </mxCell>
        <mxCell id="jB2y5ZlAkc883ijvKfTW-8" value="температура = 0&lt;br&gt;збир = 0&lt;br&gt;просек = 0&lt;br&gt;број дана = 0" style="rounded=1;whiteSpace=wrap;html=1;absoluteArcSize=1;arcSize=14;strokeWidth=2;" parent="1" vertex="1">
          <mxGeometry x="140" y="100" width="170" height="70" as="geometry" />
        </mxCell>
        <mxCell id="jB2y5ZlAkc883ijvKfTW-9" value="Крај" style="strokeWidth=2;html=1;shape=mxgraph.flowchart.start_1;whiteSpace=wrap;" parent="1" vertex="1">
          <mxGeometry x="400" y="430" width="170" height="40" as="geometry" />
        </mxCell>
        <mxCell id="O0oJpY8e8Bnj8QhviU5S-11" style="edgeStyle=orthogonalEdgeStyle;rounded=0;orthogonalLoop=1;jettySize=auto;html=1;exitX=0.5;exitY=0;exitDx=0;exitDy=0;entryX=0.5;entryY=0;entryDx=0;entryDy=0;" parent="1" source="jB2y5ZlAkc883ijvKfTW-19" target="O0oJpY8e8Bnj8QhviU5S-5" edge="1">
          <mxGeometry relative="1" as="geometry" />
        </mxCell>
        <mxCell id="jB2y5ZlAkc883ijvKfTW-19" value="температура" style="shape=trapezoid;perimeter=trapezoidPerimeter;whiteSpace=wrap;html=1;fixedSize=1;direction=west;" parent="1" vertex="1">
          <mxGeometry x="140" y="260" width="170" height="30" as="geometry" />
        </mxCell>
        <mxCell id="O0oJpY8e8Bnj8QhviU5S-15" style="edgeStyle=orthogonalEdgeStyle;rounded=0;orthogonalLoop=1;jettySize=auto;html=1;exitX=0.5;exitY=1;exitDx=0;exitDy=0;entryX=0.5;entryY=0;entryDx=0;entryDy=0;entryPerimeter=0;" parent="1" source="jB2y5ZlAkc883ijvKfTW-20" target="jB2y5ZlAkc883ijvKfTW-9" edge="1">
          <mxGeometry relative="1" as="geometry" />
        </mxCell>
        <mxCell id="jB2y5ZlAkc883ijvKfTW-20" value="просек" style="shape=trapezoid;perimeter=trapezoidPerimeter;whiteSpace=wrap;html=1;fixedSize=1;" parent="1" vertex="1">
          <mxGeometry x="400" y="380" width="170" height="30" as="geometry" />
        </mxCell>
        <mxCell id="O0oJpY8e8Bnj8QhviU5S-10" style="edgeStyle=orthogonalEdgeStyle;rounded=0;orthogonalLoop=1;jettySize=auto;html=1;exitX=0.5;exitY=1;exitDx=0;exitDy=0;entryX=0.5;entryY=1;entryDx=0;entryDy=0;" parent="1" source="O0oJpY8e8Bnj8QhviU5S-4" target="jB2y5ZlAkc883ijvKfTW-19" edge="1">
          <mxGeometry relative="1" as="geometry" />
        </mxCell>
        <mxCell id="Vw6Hq9TLFwbQCV8CgOX5-1" style="edgeStyle=orthogonalEdgeStyle;rounded=0;orthogonalLoop=1;jettySize=auto;html=1;exitX=1;exitY=0.5;exitDx=0;exitDy=0;entryX=0.5;entryY=0;entryDx=0;entryDy=0;" edge="1" parent="1" source="O0oJpY8e8Bnj8QhviU5S-4" target="O0oJpY8e8Bnj8QhviU5S-7">
          <mxGeometry relative="1" as="geometry" />
        </mxCell>
        <mxCell id="O0oJpY8e8Bnj8QhviU5S-4" value="температура &amp;lt;&amp;gt; -273" style="shape=hexagon;perimeter=hexagonPerimeter2;whiteSpace=wrap;html=1;fixedSize=1;" parent="1" vertex="1">
          <mxGeometry x="140" y="200" width="170" height="30" as="geometry" />
        </mxCell>
        <mxCell id="O0oJpY8e8Bnj8QhviU5S-12" style="edgeStyle=orthogonalEdgeStyle;rounded=0;orthogonalLoop=1;jettySize=auto;html=1;exitX=0.5;exitY=1;exitDx=0;exitDy=0;entryX=0.5;entryY=0;entryDx=0;entryDy=0;" parent="1" source="O0oJpY8e8Bnj8QhviU5S-5" target="O0oJpY8e8Bnj8QhviU5S-6" edge="1">
          <mxGeometry relative="1" as="geometry" />
        </mxCell>
        <mxCell id="O0oJpY8e8Bnj8QhviU5S-18" style="edgeStyle=orthogonalEdgeStyle;rounded=0;orthogonalLoop=1;jettySize=auto;html=1;exitX=1;exitY=0.5;exitDx=0;exitDy=0;entryX=1;entryY=0.5;entryDx=0;entryDy=0;" parent="1" source="O0oJpY8e8Bnj8QhviU5S-5" target="O0oJpY8e8Bnj8QhviU5S-16" edge="1">
          <mxGeometry relative="1" as="geometry">
            <Array as="points">
              <mxPoint x="350" y="325" />
              <mxPoint x="350" y="465" />
            </Array>
          </mxGeometry>
        </mxCell>
        <mxCell id="O0oJpY8e8Bnj8QhviU5S-5" value="температура &amp;lt;&amp;gt; -273" style="shape=hexagon;perimeter=hexagonPerimeter2;whiteSpace=wrap;html=1;fixedSize=1;" parent="1" vertex="1">
          <mxGeometry x="140" y="310" width="170" height="30" as="geometry" />
        </mxCell>
        <mxCell id="O0oJpY8e8Bnj8QhviU5S-17" style="edgeStyle=orthogonalEdgeStyle;rounded=0;orthogonalLoop=1;jettySize=auto;html=1;exitX=0.5;exitY=1;exitDx=0;exitDy=0;entryX=0.5;entryY=0;entryDx=0;entryDy=0;" parent="1" source="O0oJpY8e8Bnj8QhviU5S-6" target="O0oJpY8e8Bnj8QhviU5S-16" edge="1">
          <mxGeometry relative="1" as="geometry" />
        </mxCell>
        <mxCell id="O0oJpY8e8Bnj8QhviU5S-6" value="број дана = број дана + 1&lt;br&gt;збир = збир + температура" style="rounded=1;whiteSpace=wrap;html=1;absoluteArcSize=1;arcSize=14;strokeWidth=2;" parent="1" vertex="1">
          <mxGeometry x="140" y="370" width="170" height="70" as="geometry" />
        </mxCell>
        <mxCell id="O0oJpY8e8Bnj8QhviU5S-14" style="edgeStyle=orthogonalEdgeStyle;rounded=0;orthogonalLoop=1;jettySize=auto;html=1;exitX=0.5;exitY=1;exitDx=0;exitDy=0;" parent="1" source="O0oJpY8e8Bnj8QhviU5S-7" target="jB2y5ZlAkc883ijvKfTW-20" edge="1">
          <mxGeometry relative="1" as="geometry" />
        </mxCell>
        <mxCell id="O0oJpY8e8Bnj8QhviU5S-7" value="просек = збир / број дана" style="rounded=1;whiteSpace=wrap;html=1;absoluteArcSize=1;arcSize=14;strokeWidth=2;" parent="1" vertex="1">
          <mxGeometry x="400" y="330" width="170" height="30" as="geometry" />
        </mxCell>
        <mxCell id="O0oJpY8e8Bnj8QhviU5S-19" style="edgeStyle=orthogonalEdgeStyle;rounded=0;orthogonalLoop=1;jettySize=auto;html=1;exitX=0.5;exitY=1;exitDx=0;exitDy=0;entryX=0;entryY=0.5;entryDx=0;entryDy=0;" parent="1" source="O0oJpY8e8Bnj8QhviU5S-16" target="O0oJpY8e8Bnj8QhviU5S-4" edge="1">
          <mxGeometry relative="1" as="geometry">
            <Array as="points">
              <mxPoint x="225" y="500" />
              <mxPoint x="100" y="500" />
              <mxPoint x="100" y="215" />
            </Array>
          </mxGeometry>
        </mxCell>
        <mxCell id="O0oJpY8e8Bnj8QhviU5S-16" value="" style="ellipse;whiteSpace=wrap;html=1;aspect=fixed;" parent="1" vertex="1">
          <mxGeometry x="220" y="460" width="10" height="10" as="geometry" />
        </mxCell>
        <mxCell id="O0oJpY8e8Bnj8QhviU5S-20" value="Да" style="text;html=1;align=center;verticalAlign=middle;resizable=0;points=[];autosize=1;" parent="1" vertex="1">
          <mxGeometry x="221" y="230" width="30" height="20" as="geometry" />
        </mxCell>
        <mxCell id="O0oJpY8e8Bnj8QhviU5S-21" value="Не" style="text;html=1;align=center;verticalAlign=middle;resizable=0;points=[];autosize=1;" parent="1" vertex="1">
          <mxGeometry x="309" y="197" width="30" height="20" as="geometry" />
        </mxCell>
        <mxCell id="O0oJpY8e8Bnj8QhviU5S-22" value="Да" style="text;html=1;align=center;verticalAlign=middle;resizable=0;points=[];autosize=1;" parent="1" vertex="1">
          <mxGeometry x="225" y="340" width="30" height="20" as="geometry" />
        </mxCell>
        <mxCell id="O0oJpY8e8Bnj8QhviU5S-23" value="Не" style="text;html=1;align=center;verticalAlign=middle;resizable=0;points=[];autosize=1;" parent="1" vertex="1">
          <mxGeometry x="310" y="305" width="30" height="20" as="geometry" />
        </mxCell>
      </root>
    </mxGraphModel>
  </diagram>
</mxfile>
